<svg width="16" height="16" viewBox="0 0 16 16" fill="none" xmlns="http://www.w3.org/2000/svg">
<path d="M8.25 5.10313C7.77883 5.10313 7.39687 4.72117 7.39688 4.25C7.39688 3.77883 7.77883 3.39687 8.25 3.39688C8.72117 3.39688 9.10313 3.77883 9.10313 4.25C9.10313 4.72117 8.72117 5.10313 8.25 5.10313ZM8.25 8.85313C7.77883 8.85313 7.39687 8.47117 7.39688 8C7.39688 7.52883 7.77883 7.14687 8.25 7.14687C8.72117 7.14687 9.10313 7.52883 9.10313 8C9.10313 8.47117 8.72117 8.85313 8.25 8.85313ZM8.25 12.6031C7.77883 12.6031 7.39687 12.2212 7.39688 11.75C7.39688 11.2788 7.77883 10.8969 8.25 10.8969C8.72117 10.8969 9.10313 11.2788 9.10313 11.75C9.10313 12.2212 8.72117 12.6031 8.25 12.6031Z" fill="#999999" stroke="#999999" stroke-width="0.79375"/>
</svg>
