<svg width="16" height="16" viewBox="0 0 16 16" fill="none" xmlns="http://www.w3.org/2000/svg">
<path fill-rule="evenodd" clip-rule="evenodd" d="M5.51388 2.99889C5.63874 1.87444 6.59226 1 7.75002 1C8.90778 1 9.86131 1.87444 9.98617 2.9989C11.7666 3.83829 13 5.64929 13 7.75V10.1188C13 10.3241 13.0815 10.5209 13.2267 10.666L14.2804 11.7197C14.4949 11.9342 14.559 12.2568 14.4429 12.537C14.3268 12.8173 14.0534 13 13.75 13L10.75 13C10.75 14.6569 9.40688 16 7.75002 16C6.09317 16 4.75002 14.6569 4.75002 13L1.75002 13C1.44668 13 1.1732 12.8173 1.05711 12.537C0.941026 12.2568 1.00519 11.9342 1.21969 11.7197L2.27339 10.666C2.4185 10.5209 2.50002 10.3241 2.50002 10.1188V7.75C2.50002 5.64929 3.73348 3.83829 5.51388 2.99889ZM6.25002 13C6.25002 13.8284 6.92159 14.5 7.75002 14.5C8.57845 14.5 9.25002 13.8284 9.25002 13H6.25002ZM7.75002 2.5C7.33581 2.5 7.00002 2.83579 7.00002 3.25V3.50606C7.00002 3.82392 6.79965 4.10726 6.49996 4.21319C5.04245 4.72834 4.00002 6.1184 4.00002 7.75V10.1188C4.00002 10.6208 3.83404 11.1056 3.53248 11.5H11.9676C11.666 11.1056 11.5 10.6208 11.5 10.1188V7.75C11.5 6.1184 10.4576 4.72834 9.00009 4.21319C8.70039 4.10726 8.50002 3.82392 8.50002 3.50606V3.25C8.50002 2.83579 8.16424 2.5 7.75002 2.5Z" fill="#999999"/>
</svg>
