<svg width="16" height="16" viewBox="0 0 16 16" fill="none" xmlns="http://www.w3.org/2000/svg">
<path fill-rule="evenodd" clip-rule="evenodd" d="M6.31294 2.57221C6.82185 0.475929 9.80315 0.475932 10.3121 2.57221C10.3812 2.85694 10.7074 2.99206 10.9576 2.8396C12.7997 1.71716 14.9078 3.82526 13.7854 5.6674C13.6329 5.91761 13.7681 6.24382 14.0528 6.31294C16.1491 6.82185 16.1491 9.80315 14.0528 10.3121C13.7681 10.3812 13.6329 10.7074 13.7854 10.9576C14.9078 12.7997 12.7997 14.9078 10.9576 13.7854C10.7074 13.6329 10.3812 13.7681 10.3121 14.0528C9.80315 16.1491 6.82185 16.1491 6.31294 14.0528C6.24382 13.7681 5.91761 13.6329 5.6674 13.7854C3.82526 14.9078 1.71716 12.7997 2.8396 10.9576C2.99206 10.7074 2.85694 10.3812 2.57221 10.3121C0.475932 9.80315 0.475929 6.82185 2.57221 6.31294C2.85694 6.24382 2.99205 5.91761 2.8396 5.6674C1.71716 3.82526 3.82526 1.71716 5.6674 2.8396C5.91761 2.99205 6.24382 2.85693 6.31294 2.57221ZM8.73293 2.95557C8.62592 2.51481 7.99908 2.51481 7.89207 2.95557C7.56333 4.30974 6.01187 4.95237 4.82187 4.22729C4.43454 3.99129 3.99129 4.43454 4.22729 4.82187C4.95238 6.01187 4.30974 7.56332 2.95557 7.89207C2.51481 7.99908 2.51481 8.62592 2.95557 8.73293C4.30974 9.06168 4.95238 10.6131 4.22729 11.8031C3.99129 12.1905 4.43454 12.6337 4.82187 12.3977C6.01187 11.6726 7.56333 12.3153 7.89207 13.6694C7.99908 14.1102 8.62592 14.1102 8.73293 13.6694C9.06168 12.3153 10.6131 11.6726 11.8031 12.3977C12.1905 12.6337 12.6337 12.1905 12.3977 11.8031C11.6726 10.6131 12.3153 9.06168 13.6694 8.73293C14.1102 8.62592 14.1102 7.99908 13.6694 7.89207C12.3153 7.56332 11.6726 6.01187 12.3977 4.82187C12.6337 4.43454 12.1905 3.99129 11.8031 4.22729C10.6131 4.95238 9.06168 4.30974 8.73293 2.95557ZM8.3125 6.95833C7.56461 6.95833 6.95833 7.56461 6.95833 8.3125C6.95833 9.06039 7.56461 9.66667 8.3125 9.66667C9.06039 9.66667 9.66667 9.06039 9.66667 8.3125C9.66667 7.56461 9.06039 6.95833 8.3125 6.95833ZM5.33333 8.3125C5.33333 6.66715 6.66715 5.33333 8.3125 5.33333C9.95785 5.33333 11.2917 6.66715 11.2917 8.3125C11.2917 9.95785 9.95785 11.2917 8.3125 11.2917C6.66715 11.2917 5.33333 9.95785 5.33333 8.3125Z" fill="#999999"/>
</svg>
