<svg width="35" height="35" viewBox="0 0 35 35" fill="none" xmlns="http://www.w3.org/2000/svg">
<path d="M2.93467 9.74324V23.1213C2.93467 25.4495 2.51247 28.3323 4.06895 28.3323C5.13024 28.3323 4.70804 25.4495 4.70804 23.1213V12.5823C4.70804 10.2541 6.39992 9.36215 8.48696 9.36215H29.3777C29.3777 7.03394 25.7145 6.98315 23.6274 6.98315H14.2657L12.0784 5.43715H6.78433C4.2021 5.43715 2.93467 7.41503 2.93467 9.74324Z" fill="#0B7EC7"/>
<path d="M4.70825 13.5778C4.70825 11.2496 6.40012 9.3622 8.48716 9.3622H29.3779H28.8673C30.9544 9.3622 32.6462 11.2496 32.6462 13.5778V24.1168C32.6462 26.445 30.9544 28.3324 28.8673 28.3324H4.06916C4.63525 28.3324 4.70825 26.445 4.70825 24.1168V18.8473V13.5778Z" fill="#4EB1F0"/>
<path fill-rule="evenodd" clip-rule="evenodd" d="M4.62352 7.67991C4.16558 8.19173 3.86983 9.10008 3.86983 10.7387V12.5438C4.30121 10.2554 6.13574 8.42728 8.4872 8.42728H26.58C26.4315 8.41978 26.2729 8.41583 26.1036 8.41583H13.9689L11.7816 6.86983H7.27977C5.81864 6.86983 5.05752 7.19486 4.62352 7.67991ZM28.8674 10.2971H8.4872C7.01003 10.2971 5.6432 11.6671 5.6432 13.5778V24.1168C5.6432 25.2756 5.62585 26.3815 5.52964 27.206C5.52221 27.2697 5.51411 27.3337 5.50522 27.3975H28.8674C30.3445 27.3975 31.7114 26.0274 31.7114 24.1168V13.5778C31.7114 11.6672 30.3445 10.2971 28.8674 10.2971ZM4.0692 29.2673C3.46858 29.2673 2.99874 28.9755 2.68972 28.5532C2.41453 28.1771 2.27236 27.7109 2.18693 27.2791C2.01501 26.41 2 25.2609 2 24.1168V10.7387C2 8.96323 2.3026 7.46968 3.23004 6.43312C4.18143 5.36981 5.59273 5 7.27977 5H12.3757L14.563 6.546H26.1036C27.1965 6.546 28.2053 6.68396 28.9705 7.10072C29.3686 7.31749 29.7165 7.61844 29.9606 8.02348C30.078 8.21839 30.1639 8.42493 30.2214 8.63968C32.212 9.28468 33.5812 11.3155 33.5812 13.5778V24.1168C33.5812 26.8626 31.5643 29.2673 28.8674 29.2673H4.0692ZM3.52357 27.6885C3.52346 27.6879 3.52631 27.6816 3.53245 27.6711C3.52675 27.6838 3.52368 27.689 3.52357 27.6885Z" fill="#3BA6EA"/>
</svg>
