<svg width="16" height="16" viewBox="0 0 16 16" fill="none" xmlns="http://www.w3.org/2000/svg">
<path fill-rule="evenodd" clip-rule="evenodd" d="M3.3675 2.61027C2.97413 2.61027 2.61025 2.95125 2.61025 3.42857V10.5714C2.61025 11.0488 2.97413 11.3897 3.3675 11.3897C3.76087 11.3897 4.12475 11.0488 4.12475 10.5714V7C4.12475 5.89938 4.98539 4.96116 6.10254 4.96116H10.9624V4.85715C10.9624 4.37982 10.5985 4.03884 10.2051 4.03884H7.20944L5.84192 2.61027H3.3675ZM6.10254 6.1817C5.70917 6.1817 5.34529 6.52267 5.34529 7V10.5714C5.34529 10.86 5.28612 11.1375 5.17867 11.3897H12.9402C13.3335 11.3897 13.6974 11.0488 13.6974 10.5714V7C13.6974 6.52267 13.3335 6.1817 12.9402 6.1817H6.10254ZM3.3675 12.6103C2.25035 12.6103 1.38971 11.6721 1.38971 10.5714V3.42857C1.38971 2.32795 2.25035 1.38973 3.3675 1.38973H6.36317L7.73069 2.8183H10.2051C11.3223 2.8183 12.1829 3.75652 12.1829 4.85715V4.96116H12.9402C14.0573 4.96116 14.9179 5.89938 14.9179 7V10.5714C14.9179 11.6721 14.0573 12.6103 12.9402 12.6103H3.3675Z" fill="#0084FF"/>
</svg>
