<svg width="16" height="16" viewBox="0 0 16 16" fill="none" xmlns="http://www.w3.org/2000/svg">
<path d="M2.88347 3.85786C1.70551 5.00168 1.70551 6.85617 2.88347 7.99998L8.03276 13L13.182 7.99998C14.3599 6.85617 14.3599 5.00168 13.182 3.85786C12.004 2.71405 10.0942 2.71405 8.9162 3.85786L8.03276 4.71576L7.14925 3.85786C5.97129 2.71405 4.06144 2.71405 2.88347 3.85786Z" fill="#999999"/>
<path fill-rule="evenodd" clip-rule="evenodd" d="M9.26453 4.21656C9.26452 4.21657 9.26452 4.21657 9.26452 4.21658L8.38109 5.07446C8.18709 5.26285 7.87846 5.26286 7.68445 5.07447L6.80094 4.21658C5.81698 3.26114 4.21575 3.26114 3.23179 4.21658C2.25607 5.16401 2.25607 6.69384 3.23179 7.64127L8.03276 12.3031L12.8337 7.64127L13.182 7.99998L12.8337 7.64127C13.8094 6.69384 13.8094 5.16401 12.8337 4.21658C11.8497 3.26115 10.2485 3.26114 9.26453 4.21656ZM8.56788 3.49915C9.93985 2.16695 12.1583 2.16695 13.5303 3.49915C14.9105 4.83934 14.9105 7.0185 13.5303 8.3587L8.38108 13.3587C8.18708 13.5471 7.87845 13.5471 7.68445 13.3587L2.53516 8.3587C1.15495 7.0185 1.15495 4.83934 2.53516 3.49915C3.90712 2.16695 6.1256 2.16695 7.49757 3.49915L8.03275 4.01881L8.56787 3.49916L8.56788 3.49915Z" fill="#999999"/>
</svg>
