<svg width="16" height="16" viewBox="0 0 16 16" fill="none" xmlns="http://www.w3.org/2000/svg">
<path fill-rule="evenodd" clip-rule="evenodd" d="M7.61429 1.6143C7.8273 1.40129 8.17266 1.40129 8.38568 1.6143L14.3857 7.6143C14.5987 7.82732 14.5987 8.17268 14.3857 8.38569C14.1727 8.59871 13.8273 8.59871 13.6143 8.38569L13.2121 7.98351V13.3333C13.2121 14.0028 12.6694 14.5455 12 14.5455H3.99998C3.33055 14.5455 2.78786 14.0028 2.78786 13.3333V7.98351L2.38568 8.38569C2.17266 8.59871 1.8273 8.59871 1.61429 8.38569C1.40128 8.17268 1.40128 7.82732 1.61429 7.6143L7.61429 1.6143ZM3.87877 6.8926V13.3333C3.87877 13.4003 3.93304 13.4545 3.99998 13.4545H5.99998C6.06693 13.4545 6.1212 13.4003 6.1212 13.3333V10.6667C6.1212 9.99723 6.66388 9.45454 7.33332 9.45454H8.66665C9.33609 9.45454 9.87877 9.99723 9.87877 10.6667V13.3333C9.87877 13.4003 9.93304 13.4545 9.99998 13.4545H12C12.0669 13.4545 12.1212 13.4003 12.1212 13.3333V6.8926L7.99998 2.77139L3.87877 6.8926ZM8.79385 13.4545C8.78989 13.4147 8.78786 13.3742 8.78786 13.3333V10.6667C8.78786 10.5997 8.73359 10.5455 8.66665 10.5455H7.33332C7.26637 10.5455 7.2121 10.5997 7.2121 10.6667V13.3333C7.2121 13.3742 7.21008 13.4147 7.20612 13.4545H8.79385Z" fill="#999999"/>
</svg>
