<svg width="16" height="16" viewBox="0 0 16 16" fill="none" xmlns="http://www.w3.org/2000/svg">
<path fill-rule="evenodd" clip-rule="evenodd" d="M8 3C6.67392 3 5.40215 3.52678 4.46447 4.46447C3.52678 5.40215 3 6.67392 3 8C3 8.65661 3.12933 9.30679 3.3806 9.91342C3.63188 10.52 4.00017 11.0712 4.46447 11.5355C4.92876 11.9998 5.47996 12.3681 6.08658 12.6194C6.69321 12.8707 7.34339 13 8 13C8.65661 13 9.30679 12.8707 9.91342 12.6194C10.52 12.3681 11.0712 11.9998 11.5355 11.5355C11.9998 11.0712 12.3681 10.52 12.6194 9.91342C12.8707 9.30679 13 8.65661 13 8C13 6.67392 12.4732 5.40215 11.5355 4.46447C10.5979 3.52678 9.32608 3 8 3ZM3.75736 3.75736C4.88258 2.63214 6.4087 2 8 2C9.5913 2 11.1174 2.63214 12.2426 3.75736C13.3679 4.88258 14 6.4087 14 8C14 8.78793 13.8448 9.56815 13.5433 10.2961C13.2417 11.0241 12.7998 11.6855 12.2426 12.2426C11.6855 12.7998 11.0241 13.2417 10.2961 13.5433C9.56815 13.8448 8.78793 14 8 14C7.21207 14 6.43185 13.8448 5.7039 13.5433C4.97595 13.2417 4.31451 12.7998 3.75736 12.2426C3.20021 11.6855 2.75825 11.0241 2.45672 10.2961C2.15519 9.56815 2 8.78793 2 8C2 6.4087 2.63214 4.88258 3.75736 3.75736ZM7.5 5.55556C7.5 5.27941 7.72386 5.05556 8 5.05556H8.00611C8.28225 5.05556 8.50611 5.27941 8.50611 5.55556C8.50611 5.8317 8.28225 6.05556 8.00611 6.05556H8C7.72386 6.05556 7.5 5.8317 7.5 5.55556ZM6.88889 8C6.88889 7.72386 7.11275 7.5 7.38889 7.5H8C8.27614 7.5 8.5 7.72386 8.5 8V9.94444H8.61111C8.88725 9.94444 9.11111 10.1683 9.11111 10.4444C9.11111 10.7206 8.88725 10.9444 8.61111 10.9444H8C7.72386 10.9444 7.5 10.7206 7.5 10.4444V8.5H7.38889C7.11275 8.5 6.88889 8.27614 6.88889 8Z" fill="#999999"/>
</svg>
