<svg width="35" height="35" viewBox="0 0 35 35" fill="none" xmlns="http://www.w3.org/2000/svg">
<path d="M25.3869 6.79544L22.6991 4.14753C22.4993 3.95082 22.1726 3.95082 21.9729 4.14753L17.2559 8.79441C17.0561 8.99122 17.0561 9.31304 17.2559 9.50977L19.9437 12.1577C20.1434 12.3544 20.4702 12.3544 20.6699 12.1577L25.3869 7.51072C25.5867 7.31402 25.5867 6.99215 25.3869 6.79544Z" fill="#0084FF"/>
<path d="M12.3422 8.09535L17.7932 13.4652C18.1981 13.8642 18.1981 14.5168 17.7932 14.9159L8.22712 24.3397C7.82208 24.7386 7.15957 24.7386 6.75453 24.3397L1.3037 18.9698C0.898766 18.5708 0.898766 17.9183 1.3037 17.5192L10.8698 8.09535C11.2748 7.69644 11.9373 7.69644 12.3422 8.09535Z" fill="#0084FF"/>
<path d="M28.2454 9.54033L33.6962 14.9102C34.1013 15.3091 34.1013 15.9618 33.6962 16.3609L24.1302 25.7846C23.7252 26.1836 23.0626 26.1836 22.6576 25.7846L17.2068 20.4148C16.8018 20.0158 16.8018 19.3631 17.2068 18.9641L26.7728 9.54033C27.1778 9.14132 27.8404 9.14132 28.2454 9.54033Z" fill="#0084FF"/>
<path d="M15.1218 21.8423L17.8096 24.4902C18.0094 24.6869 18.0094 25.0087 17.8096 25.2055L13.0926 29.8524C12.8929 30.0492 12.5661 30.0492 12.3665 29.8524L9.67865 27.2046C9.47887 27.0078 9.47887 26.686 9.67865 26.4892L14.3957 21.8423C14.5954 21.6455 14.922 21.6455 15.1218 21.8423Z" fill="#0084FF"/>
</svg>
