<svg width="16" height="16" viewBox="0 0 16 16" fill="none" xmlns="http://www.w3.org/2000/svg">
<path fill-rule="evenodd" clip-rule="evenodd" d="M6.89999 4.3C5.46405 4.3 4.3 5.46406 4.3 6.9C4.3 8.33594 5.46405 9.5 6.89999 9.5C8.33592 9.5 9.49998 8.33594 9.49998 6.9C9.49998 5.46406 8.33592 4.3 6.89999 4.3ZM3 6.9C3 4.74609 4.74608 3 6.89999 3C9.05389 3 10.8 4.74609 10.8 6.9C10.8 7.74229 10.533 8.52222 10.079 9.15975L13.2096 12.2904C13.4634 12.5442 13.4634 12.9558 13.2096 13.2096C12.9557 13.4635 12.5442 13.4635 12.2904 13.2096L9.15973 10.079C8.5222 10.533 7.74228 10.8 6.89999 10.8C4.74608 10.8 3 9.05391 3 6.9Z" fill="#9CA3AF"/>
</svg>
